<svg xmlns="http://www.w3.org/2000/svg" version="1.1" xmlns:xlink="http://www.w3.org/1999/xlink" xmlns:svgjs="http://svgjs.com/svgjs" width="1440" height="560" preserveAspectRatio="none" viewBox="0 0 1440 560"><g mask="url(&quot;#SvgjsMask1000&quot;)" fill="none"><rect width="1440" height="560" x="0" y="0" fill="#0e2a47"></rect><path d="M499.33 193.99a16.55 16.55 0 1 0 33.1 0.16z" stroke="#037b0b"></path><path d="M1253.2 452.85 a9.28 9.28 0 1 0 18.56 0 a9.28 9.28 0 1 0 -18.56 0z" fill="#e73635"></path><path d="M1038.29 479.66 a34.88 34.88 0 1 0 69.76 0 a34.88 34.88 0 1 0 -69.76 0z" fill="#e73635"></path><path d="M778.99 426.56a24.63 24.63 0 1 0-24.74-42.59z" stroke="#e73635"></path><path d="M663.74 281.35L672.3 281.35L672.3 295.93L663.74 295.93z" fill="#e73635"></path><path d="M1105.47 1.81L1145.69 1.81L1145.69 42.03L1105.47 42.03z" fill="#e73635"></path><path d="M1048.4 302.13 a12.7 12.7 0 1 0 25.4 0 a12.7 12.7 0 1 0 -25.4 0z" fill="#d3b714"></path><path d="M434.33 352.45 a53.41 53.41 0 1 0 106.82 0 a53.41 53.41 0 1 0 -106.82 0z" stroke="#d3b714"></path><path d="M-2.91 377.28 a42.78 42.78 0 1 0 85.56 0 a42.78 42.78 0 1 0 -85.56 0z" fill="#037b0b"></path><path d="M91.51 228.8a11.38 11.38 0 1 0-17.54 14.51z" fill="#037b0b"></path><path d="M756.01 301.18 a35.73 35.73 0 1 0 71.46 0 a35.73 35.73 0 1 0 -71.46 0z" fill="#d3b714"></path><path d="M1329.21 369.43L1334.55 369.43L1334.55 400.57L1329.21 400.57z" stroke="#d3b714"></path><path d="M551.25 503.88a39.95 39.95 0 1 0 26.38-75.42z" stroke="#e73635"></path><path d="M302.36 241.5a32.07 32.07 0 1 0 2.92-64.07z" stroke="#037b0b"></path><path d="M724.75 207.73a42.07 42.07 0 1 0-56.51-62.33z" stroke="#037b0b"></path><path d="M705.44 206.59L727.31 206.59L727.31 231.42L705.44 231.42z" stroke="#037b0b"></path><path d="M441.91 239.88L451.41 239.88L451.41 242.47L441.91 242.47z" stroke="#d3b714"></path><path d="M235.3 518.05L244.54 518.05L244.54 527.29L235.3 527.29z" stroke="#e73635"></path><path d="M129.54 162.07a1.23 1.23 0 1 0-1.27-2.11z" stroke="#e73635"></path><path d="M1195.69 259.91L1245.57 259.91L1245.57 309.79L1195.69 309.79z" fill="#e73635"></path><path d="M254.19 136.26L265.73 136.26L265.73 183.37L254.19 183.37z" stroke="#e73635"></path><path d="M359.07 136.37L414.43 136.37L414.43 191.73L359.07 191.73z" fill="#d3b714"></path><path d="M455.16 186.49a34.7 34.7 0 1 0-62.92-29.3z" fill="#037b0b"></path><path d="M1153.8 212.36 a30.14 30.14 0 1 0 60.28 0 a30.14 30.14 0 1 0 -60.28 0z" stroke="#e73635"></path><path d="M1402.69 108.95 a22.21 22.21 0 1 0 44.42 0 a22.21 22.21 0 1 0 -44.42 0z" stroke="#e73635"></path><path d="M592.84 542.66a0.21 0.21 0 1 0-0.32 0.27z" fill="#d3b714"></path><path d="M675.11 371.76L701.42 371.76L701.42 398.07L675.11 398.07z" stroke="#d3b714"></path><path d="M336.03 413.04a18.3 18.3 0 1 0 24.52-27.17z" fill="#037b0b"></path><path d="M1139.99 328.54a39.76 39.76 0 1 0 67.46 42.1z" stroke="#e73635"></path><path d="M160.3 496.22a48.37 48.37 0 1 0-96.22-10.02z" stroke="#037b0b"></path><path d="M584.54 116.88 a29.03 29.03 0 1 0 58.06 0 a29.03 29.03 0 1 0 -58.06 0z" fill="#e73635"></path><path d="M1413.28 528.06L1441.12 528.06L1441.12 570.87L1413.28 570.87z" fill="#d3b714"></path><path d="M384.38 199.56a24.56 24.56 0 1 0 34.14-35.31z" stroke="#e73635"></path></g><defs><mask id="SvgjsMask1000"><rect width="1440" height="560" fill="#ffffff"></rect></mask></defs></svg>